<?xml version="1.0" encoding="utf-8"?>
<!-- Generator: Adobe Illustrator 23.0.1, SVG Export Plug-In . SVG Version: 6.00 Build 0)  -->
<svg version="1.1" id="Layer_1" xmlns="http://www.w3.org/2000/svg" xmlns:xlink="http://www.w3.org/1999/xlink" x="0px" y="0px"
	 viewBox="0 0 230.4 230.4" style="enable-background:new 0 0 230.4 230.4;" xml:space="preserve">
<style type="text/css">
	.st0{opacity:0.5;}
	.st1{fill:none;stroke:#00BFFF;stroke-width:4;stroke-linecap:round;stroke-miterlimit:10;}
	.st2{fill:none;stroke:#00BFFF;stroke-width:4;stroke-linecap:round;stroke-miterlimit:10;stroke-dasharray:0,5.992;}
	.st3{fill:#00BFFF;}
</style>
<title>humidity1Asset 1</title>
<g>
	<g class="st0">
		<circle cx="115.2" cy="115.2" r="115.2"/>
	</g>
	<g>
		<g>
			<line class="st1" x1="148.4" y1="53.8" x2="148.4" y2="53.8"/>
			<path class="st2" d="M144.6,58.4c-5.7,7.1-15.9,20.8-15.9,28.2c0,10.3,8.8,18.8,19.7,18.8S168,97,168,86.6
				c0-8.4-12.7-24.5-17.7-30.5"/>
		</g>
	</g>
	<path class="st3" d="M101.7,96.4c0-10.3-19.7-32.8-19.7-32.8S62.4,86.1,62.4,96.4s8.8,18.8,19.7,18.8S101.7,106.8,101.7,96.4z"/>
	<path class="st3" d="M89.4,147.1c0,16.3,13.1,29.5,29.5,29.5s29.5-13.1,29.5-29.5s-29.5-51.6-29.5-51.6S89.4,130.8,89.4,147.1z"/>
</g>
</svg>
