<?xml version="1.0" encoding="utf-8"?>
<!-- Generator: Adobe Illustrator 23.0.1, SVG Export Plug-In . SVG Version: 6.00 Build 0)  -->
<svg version="1.1" id="Layer_1" xmlns="http://www.w3.org/2000/svg" xmlns:xlink="http://www.w3.org/1999/xlink" x="0px" y="0px"
	 viewBox="0 0 230.4 230.4" style="enable-background:new 0 0 230.4 230.4;" xml:space="preserve">
<style type="text/css">
	.st0{opacity:0.5;}
	.st1{fill:#00BFFF;}
</style>
<title>humidity1Asset 1</title>
<g>
	<g id="middle">
		<g class="st0">
			<circle cx="115.2" cy="115.2" r="115.2"/>
		</g>
		<path class="st1" d="M148.4,53.8c0,0-19.7,22.5-19.7,32.8s8.8,18.8,19.7,18.8S168,97,168,86.6S148.4,53.8,148.4,53.8z"/>
		<path class="st1" d="M101.7,96.4c0-10.3-19.7-32.8-19.7-32.8S62.4,86.1,62.4,96.4s8.8,18.8,19.6,18.8S101.7,106.8,101.7,96.4z"/>
		<path class="st1" d="M89.4,147.2c0,16.3,13.2,29.5,29.5,29.5s29.5-13.2,29.5-29.5c0-16.4-29.5-51.6-29.5-51.6
			S89.4,130.8,89.4,147.2z"/>
	</g>
</g>
</svg>
