<?xml version="1.0" encoding="utf-8"?>
<!-- Generator: Adobe Illustrator 23.0.1, SVG Export Plug-In . SVG Version: 6.00 Build 0)  -->
<svg version="1.1" id="Layer_1" xmlns="http://www.w3.org/2000/svg" xmlns:xlink="http://www.w3.org/1999/xlink" x="0px" y="0px"
	 viewBox="0 0 230.4 230.4" style="enable-background:new 0 0 230.4 230.4;" xml:space="preserve">
<style type="text/css">
	.st0{opacity:0.5;}
	.st1{enable-background:new    ;}
	.st2{clip-path:url(#SVGID_2_);}
	.st3{fill:#FFDD0D;}
	.st4{clip-path:url(#SVGID_4_);}
	.st5{clip-path:url(#SVGID_6_);}
	.st6{fill:none;stroke:#FFFFFF;stroke-width:7.1998;stroke-miterlimit:10;}
	.st7{fill:#FFFFFF;}
	.st8{clip-path:url(#SVGID_8_);}
	.st9{opacity:0.3;}
	.st10{clip-path:url(#SVGID_10_);}
</style>
<g class="st0">
	<g>
		<g class="st1">
			<defs>
				<polygon id="SVGID_1_" class="st1" points="241.2,-42 248.7,-110.7 312,-58.6 318.3,15.1 				"/>
			</defs>
			<clipPath id="SVGID_2_">
				<use xlink:href="#SVGID_1_"  style="overflow:visible;"/>
			</clipPath>
			<g class="st2">
				<g>
					<g>
						<g>
							<path class="st3" d="M281.5-13.5c-0.3-0.3-0.7-0.6-1-0.9c-0.3-0.3-0.6-0.7-0.8-1c-0.2-0.4-0.4-0.7-0.5-1.1
								c-0.1-0.3-0.2-0.7-0.2-1c0-0.3,0.1-0.5,0.2-0.7c0.1-0.2,0.3-0.3,0.5-0.3c0.2,0,0.5,0,0.8,0.1c0.3,0.1,0.6,0.3,0.9,0.5
								c0.3,0.3,0.7,0.5,0.9,0.9c0.3,0.3,0.6,0.7,0.8,1c0.2,0.4,0.4,0.7,0.5,1.1c0.1,0.3,0.2,0.7,0.2,1c0,0.3-0.1,0.5-0.2,0.7
								c-0.1,0.2-0.3,0.3-0.5,0.3c-0.2,0-0.5,0-0.8-0.1C282.1-13.1,281.8-13.2,281.5-13.5 M251.4-41.6c-0.1-0.1-0.3-0.2-0.4-0.4
								c-0.1-0.1-0.2-0.3-0.3-0.4c-0.1-0.1-0.2-0.3-0.2-0.4c0-0.1-0.1-0.3-0.1-0.4l4.8-56.6c0-0.1,0-0.1,0.1-0.2c0.1,0,0.1,0,0.2,0
								c0.1,0,0.2,0,0.3,0.1c0.1,0.1,0.2,0.1,0.4,0.2l49.3,40.3c0.1,0.1,0.2,0.2,0.3,0.3c0.1,0.1,0.2,0.2,0.3,0.3
								c0.1,0.1,0.1,0.2,0.2,0.3c0,0.1,0.1,0.2,0.1,0.3l4.2,59.9c0,0.1,0,0.2,0,0.3c0,0.1-0.1,0.1-0.2,0.1c-0.1,0-0.2,0-0.3,0
								c-0.1,0-0.2-0.1-0.4-0.2L251.4-41.6 M308.2-61.7L253-107.1c-0.6-0.5-1.2-0.9-1.7-1.2c-0.5-0.3-1-0.5-1.4-0.5
								c-0.4-0.1-0.8,0-1,0.1c-0.3,0.2-0.4,0.4-0.5,0.8l-6.7,61.7c-0.1,0.6,0,1.2,0.2,1.9c0.2,0.7,0.6,1.4,1,2.2
								c0.4,0.7,1,1.5,1.6,2.2c0.6,0.7,1.3,1.3,2.1,1.9l67.2,49.8c0.6,0.5,1.2,0.8,1.7,1c0.5,0.2,1,0.2,1.4,0.1
								c0.4-0.1,0.7-0.3,0.9-0.7c0.2-0.4,0.3-0.8,0.2-1.4l-5.7-66.3c0-0.4-0.2-0.9-0.4-1.4c-0.2-0.5-0.5-1.1-0.9-1.6
								c-0.4-0.6-0.8-1.1-1.3-1.6C309.2-60.8,308.7-61.3,308.2-61.7"/>
						</g>
					</g>
				</g>
			</g>
		</g>
	</g>
</g>
<g>
	<g>
		<g class="st1">
			<defs>
				<polygon id="SVGID_3_" class="st1" points="-198.4,45.5 -188.1,-25 -100,-24.6 -91,46 				"/>
			</defs>
			<clipPath id="SVGID_4_">
				<use xlink:href="#SVGID_3_"  style="overflow:visible;"/>
			</clipPath>
			<g class="st4">
				<g>
					<g>
						<g>
							<path class="st3" d="M-144.7,44.4c-0.5,0-0.9-0.1-1.3-0.2c-0.4-0.1-0.8-0.3-1.1-0.5c-0.3-0.2-0.6-0.4-0.7-0.7
								c-0.2-0.3-0.3-0.5-0.3-0.8c0-0.3,0.1-0.6,0.3-0.8c0.2-0.3,0.4-0.5,0.7-0.7c0.3-0.2,0.7-0.3,1.1-0.4c0.4-0.1,0.9-0.2,1.3-0.2
								c0.5,0,0.9,0.1,1.3,0.2c0.4,0.1,0.8,0.3,1.1,0.5c0.3,0.2,0.6,0.4,0.7,0.7c0.2,0.3,0.3,0.5,0.3,0.8c0,0.3-0.1,0.6-0.3,0.8
								c-0.2,0.3-0.4,0.5-0.7,0.7c-0.3,0.2-0.7,0.3-1.1,0.5C-143.8,44.4-144.2,44.4-144.7,44.4 M-185.2,38.8c-0.2,0-0.4,0-0.5-0.1
								c-0.2,0-0.3-0.1-0.4-0.2c-0.1-0.1-0.2-0.2-0.3-0.3c-0.1-0.1-0.1-0.2-0.1-0.3l6.8-57.5c0-0.1,0-0.2,0.1-0.2
								c0.1-0.1,0.2-0.1,0.3-0.2c0.1-0.1,0.2-0.1,0.4-0.1c0.1,0,0.3,0,0.5,0l68.7,0.3c0.2,0,0.3,0,0.5,0.1c0.1,0,0.3,0.1,0.4,0.1
								c0.1,0.1,0.2,0.1,0.3,0.2c0.1,0.1,0.1,0.2,0.1,0.2l5.8,57.6c0,0.1,0,0.2-0.1,0.3c-0.1,0.1-0.2,0.2-0.3,0.3
								c-0.1,0.1-0.3,0.1-0.4,0.2c-0.2,0-0.3,0.1-0.5,0.1L-185.2,38.8 M-105.6-24.6l-76.8-0.4c-0.8,0-1.5,0.1-2.2,0.2
								c-0.7,0.1-1.3,0.4-1.9,0.6c-0.5,0.3-1,0.6-1.3,0.9c-0.3,0.3-0.6,0.7-0.6,1.1l-9.2,63.3c-0.1,0.6,0,1.1,0.3,1.6
								c0.3,0.5,0.7,1,1.3,1.4c0.6,0.4,1.3,0.7,2.1,0.9c0.8,0.2,1.7,0.3,2.6,0.4l93.6,0.5c1,0,1.8-0.1,2.6-0.3
								c0.8-0.2,1.5-0.5,2.1-0.9c0.6-0.4,1-0.8,1.3-1.3c0.3-0.5,0.4-1.1,0.3-1.6l-8.1-63.4c-0.1-0.4-0.3-0.8-0.6-1.1
								c-0.3-0.4-0.8-0.7-1.3-0.9c-0.5-0.3-1.2-0.5-1.9-0.6C-104.1-24.5-104.9-24.6-105.6-24.6"/>
						</g>
					</g>
				</g>
			</g>
		</g>
	</g>
</g>
<g class="st0">
	<g>
		<g class="st1">
			<defs>
				<polygon id="SVGID_5_" class="st1" points="-201.9,-42 -194.5,-110.7 -131.2,-58.6 -124.8,15.1 				"/>
			</defs>
			<clipPath id="SVGID_6_">
				<use xlink:href="#SVGID_5_"  style="overflow:visible;"/>
			</clipPath>
			<g class="st5">
				<g>
					<g>
						<g>
							<path class="st3" d="M-161.7-13.5c-0.3-0.3-0.7-0.6-1-0.9c-0.3-0.3-0.6-0.7-0.8-1c-0.2-0.4-0.4-0.7-0.5-1.1
								c-0.1-0.3-0.2-0.7-0.2-1c0-0.3,0.1-0.5,0.2-0.7c0.1-0.2,0.3-0.3,0.5-0.3c0.2,0,0.5,0,0.8,0.1c0.3,0.1,0.6,0.3,0.9,0.5
								c0.3,0.3,0.7,0.5,0.9,0.9c0.3,0.3,0.6,0.7,0.8,1c0.2,0.4,0.4,0.7,0.5,1.1c0.1,0.3,0.2,0.7,0.2,1c0,0.3-0.1,0.5-0.2,0.7
								c-0.1,0.2-0.3,0.3-0.5,0.3c-0.2,0-0.5,0-0.8-0.1C-161-13.1-161.3-13.2-161.7-13.5 M-191.7-41.6c-0.1-0.1-0.3-0.2-0.4-0.4
								c-0.1-0.1-0.2-0.3-0.3-0.4c-0.1-0.1-0.2-0.3-0.2-0.4c0-0.1-0.1-0.3-0.1-0.4l4.8-56.6c0-0.1,0-0.1,0.1-0.2c0.1,0,0.1,0,0.2,0
								c0.1,0,0.2,0,0.3,0.1c0.1,0.1,0.2,0.1,0.4,0.2l49.3,40.3c0.1,0.1,0.2,0.2,0.3,0.3c0.1,0.1,0.2,0.2,0.3,0.3
								c0.1,0.1,0.1,0.2,0.2,0.3c0,0.1,0.1,0.2,0.1,0.3l4.2,59.9c0,0.1,0,0.2,0,0.3c0,0.1-0.1,0.1-0.2,0.1c-0.1,0-0.2,0-0.3,0
								c-0.1,0-0.2-0.1-0.4-0.2L-191.7-41.6 M-135-61.7l-55.2-45.4c-0.6-0.5-1.2-0.9-1.7-1.2c-0.5-0.3-1-0.5-1.4-0.5
								c-0.4-0.1-0.8,0-1,0.1c-0.3,0.2-0.4,0.4-0.5,0.8l-6.7,61.7c-0.1,0.6,0,1.2,0.2,1.9c0.2,0.7,0.6,1.4,1,2.2
								c0.4,0.7,1,1.5,1.6,2.2c0.6,0.7,1.3,1.3,2.1,1.9l67.2,49.8c0.6,0.5,1.2,0.8,1.7,1c0.5,0.2,1,0.2,1.4,0.1
								c0.4-0.1,0.7-0.3,0.9-0.7c0.2-0.4,0.3-0.8,0.2-1.4l-5.7-66.3c0-0.4-0.2-0.9-0.4-1.4c-0.2-0.5-0.5-1.1-0.9-1.6
								c-0.4-0.6-0.8-1.1-1.3-1.6C-133.9-60.8-134.4-61.3-135-61.7"/>
						</g>
					</g>
				</g>
			</g>
		</g>
	</g>
</g>
<g>
	<g>
		<g>
			<path class="st6" d="M115.2,48.1c-8.3,0-16.2,1.5-23.5,4.2"/>
			<g>
				<polygon class="st7" points="91,43 79.6,56.8 97.3,59.8 				"/>
			</g>
		</g>
	</g>
</g>
<g>
	<g>
		<g>
			<path class="st6" d="M115.2,48.1c8.3,0,16.2,1.5,23.5,4.2"/>
			<g>
				<polygon class="st7" points="133.1,59.8 150.8,56.8 139.4,43 				"/>
			</g>
		</g>
	</g>
</g>
<g>
	<g>
		<g class="st1">
			<defs>
				<polygon id="SVGID_7_" class="st1" points="37.2,132.5 76.9,91.5 153.5,91.5 193.2,132.5 				"/>
			</defs>
			<clipPath id="SVGID_8_">
				<use xlink:href="#SVGID_7_"  style="overflow:visible;"/>
			</clipPath>
			<g class="st8">
				<g>
					<g>
						<g>
							<path class="st3" d="M115.2,131.2c-0.7,0-1.3-0.1-1.9-0.2c-0.6-0.1-1.1-0.2-1.5-0.4c-0.4-0.2-0.8-0.4-1-0.6
								c-0.2-0.2-0.4-0.5-0.3-0.8c0-0.3,0.2-0.5,0.4-0.7c0.3-0.2,0.6-0.4,1-0.6c0.4-0.2,0.9-0.3,1.5-0.4c0.6-0.1,1.2-0.1,1.8-0.1
								s1.3,0.1,1.8,0.1c0.6,0.1,1.1,0.2,1.5,0.4c0.4,0.2,0.8,0.4,1,0.6c0.3,0.2,0.4,0.5,0.4,0.7c0,0.3-0.1,0.5-0.3,0.8
								c-0.2,0.2-0.6,0.4-1,0.6c-0.4,0.2-1,0.3-1.5,0.4C116.5,131.2,115.9,131.2,115.2,131.2 M59.9,126.3c-0.3,0-0.5,0-0.7-0.1
								c-0.2,0-0.4-0.1-0.5-0.2c-0.1-0.1-0.2-0.1-0.2-0.2c0-0.1,0-0.2,0.1-0.3l24.8-32.2c0,0,0.1-0.1,0.1-0.1c0.1,0,0.2-0.1,0.3-0.1
								c0.1,0,0.2,0,0.4,0c0.1,0,0.3,0,0.4,0h61.3c0.1,0,0.3,0,0.4,0c0.1,0,0.3,0,0.4,0c0.1,0,0.2,0,0.3,0.1c0.1,0,0.1,0.1,0.2,0.1
								l24.8,32.2c0.1,0.1,0.1,0.2,0.1,0.3c0,0.1-0.1,0.2-0.2,0.2c-0.1,0.1-0.3,0.1-0.5,0.2c-0.2,0-0.4,0.1-0.7,0.1H59.9
								 M148.6,91.5H81.8c-0.7,0-1.3,0-2,0.1c-0.6,0.1-1.2,0.1-1.8,0.2c-0.5,0.1-1,0.2-1.4,0.3c-0.4,0.1-0.6,0.3-0.8,0.4l-34.8,36
								c-0.5,0.5-0.7,1-0.7,1.5c0,0.5,0.4,0.9,0.9,1.3c0.6,0.4,1.3,0.7,2.3,0.9c1,0.2,2.2,0.3,3.6,0.3h135.9c1.4,0,2.6-0.1,3.6-0.3
								c1-0.2,1.8-0.5,2.3-0.9c0.5-0.4,0.9-0.8,0.9-1.3c0-0.5-0.2-1-0.7-1.5l-34.8-36c-0.1-0.1-0.4-0.3-0.8-0.4
								c-0.4-0.1-0.8-0.2-1.4-0.3c-0.5-0.1-1.1-0.2-1.8-0.2C149.9,91.5,149.3,91.5,148.6,91.5"/>
						</g>
					</g>
				</g>
			</g>
		</g>
	</g>
</g>
<g class="st9">
	<g>
		<g class="st1">
			<defs>
				<polygon id="SVGID_9_" class="st1" points="45.8,90.5 82.3,69.2 145.8,111.3 175.4,170.4 				"/>
			</defs>
			<clipPath id="SVGID_10_">
				<use xlink:href="#SVGID_9_"  style="overflow:visible;"/>
			</clipPath>
			<g class="st10">
				<g>
					<g>
						<g>
							<path class="st3" d="M115.2,132c-0.6-0.3-1.1-0.7-1.6-1.1c-0.5-0.4-0.9-0.8-1.3-1.2c-0.4-0.4-0.6-0.8-0.8-1.2
								c-0.2-0.4-0.3-0.7-0.3-1c0-0.3,0.1-0.4,0.3-0.5c0.2-0.1,0.5-0.1,0.9-0.1c0.4,0.1,0.8,0.2,1.3,0.4c0.5,0.2,1,0.5,1.5,0.8
								c0.5,0.3,1,0.7,1.5,1.1c0.5,0.4,0.9,0.8,1.2,1.2c0.4,0.4,0.7,0.8,0.9,1.1c0.2,0.4,0.3,0.7,0.3,1c0,0.3-0.1,0.5-0.3,0.6
								c-0.2,0.1-0.5,0.2-0.8,0.1c-0.4,0-0.8-0.2-1.3-0.3C116.3,132.7,115.8,132.4,115.2,132 M67,96.9c-0.2-0.1-0.5-0.3-0.6-0.5
								c-0.2-0.2-0.3-0.3-0.4-0.4c-0.1-0.1-0.2-0.3-0.2-0.4c0-0.1,0-0.2,0.1-0.3L88,75c0,0,0.1,0,0.1,0c0.1,0,0.1,0,0.2,0.1
								c0.1,0,0.2,0.1,0.3,0.2c0.1,0.1,0.2,0.1,0.4,0.2l50.9,33.6c0.1,0.1,0.2,0.2,0.3,0.2c0.1,0.1,0.2,0.2,0.3,0.2
								c0.1,0.1,0.2,0.2,0.2,0.2c0.1,0.1,0.1,0.1,0.1,0.2l18.9,44.1c0.1,0.1,0.1,0.2,0.1,0.3c0,0.1-0.1,0.1-0.2,0.1
								c-0.1,0-0.2,0-0.4-0.1c-0.1-0.1-0.3-0.1-0.5-0.3L67,96.9 M142,108.8L86.7,72.1c-0.6-0.4-1.2-0.8-1.7-1.1
								c-0.6-0.3-1.1-0.6-1.6-0.8c-0.5-0.2-0.9-0.4-1.2-0.5c-0.3-0.1-0.6-0.1-0.7,0l-32,18.7c-0.5,0.3-0.7,0.7-0.6,1.3
								c0,0.5,0.3,1.2,0.9,1.9c0.5,0.7,1.3,1.5,2.2,2.3c1,0.8,2.1,1.7,3.4,2.5l112.8,69.6c1,0.6,1.9,1.1,2.6,1.3
								c0.7,0.2,1.3,0.3,1.7,0.2c0.4-0.1,0.6-0.4,0.7-0.8c0-0.4-0.1-1-0.5-1.7l-26-52c-0.1-0.2-0.3-0.5-0.6-0.8
								c-0.3-0.3-0.6-0.7-1.1-1c-0.4-0.4-0.9-0.7-1.4-1.1C143.1,109.5,142.6,109.2,142,108.8"/>
						</g>
					</g>
				</g>
			</g>
		</g>
	</g>
</g>
</svg>
