<?xml version="1.0" encoding="utf-8"?>
<!-- Generator: Adobe Illustrator 23.0.1, SVG Export Plug-In . SVG Version: 6.00 Build 0)  -->
<svg version="1.1" id="Layer_1" xmlns="http://www.w3.org/2000/svg" xmlns:xlink="http://www.w3.org/1999/xlink" x="0px" y="0px"
	 viewBox="0 0 230.4 230.4" style="enable-background:new 0 0 230.4 230.4;" xml:space="preserve">
<style type="text/css">
	.st0{enable-background:new    ;}
	.st1{clip-path:url(#SVGID_2_);}
	.st2{fill:#FFDD0D;}
	.st3{opacity:0.5;}
	.st4{clip-path:url(#SVGID_4_);}
	.st5{fill:none;stroke:#FFFFFF;stroke-width:5;stroke-miterlimit:10;}
	.st6{fill:#FFFFFF;}
</style>
<g>
	<g>
		<g>
			<g class="st0">
				<g>
					<g>
						<defs>
							<polygon id="SVGID_1_" points="40.1,120 123.2,71.7 190.3,110.4 107.3,158.7 							"/>
						</defs>
						<clipPath id="SVGID_2_">
							<use xlink:href="#SVGID_1_"  style="overflow:visible;"/>
						</clipPath>
						<g class="st1">
							<g>
								<g>
									<g>
										<path class="st2" d="M74.9,138.6c-1.2-0.7-1.2-1.8-0.1-2.4c1.1-0.7,3-0.7,4.2,0s1.2,1.8,0.1,2.5
											C78,139.3,76.1,139.3,74.9,138.6 M54.5,120.6c-0.5-0.3-0.5-0.7,0-1L122.6,80c0.5-0.3,1.3-0.3,1.8,0l51.6,29.8
											c0.5,0.3,0.5,0.7,0,1l-68.1,39.6c-0.5,0.3-1.3,0.3-1.8,0L54.5,120.6 M186,108l-58.5-33.8c-2.4-1.4-6.2-1.4-8.5-0.1
											l-74.8,43.5c-2.3,1.3-2.2,3.5,0.1,4.9l58.5,33.8c2.4,1.4,6.2,1.4,8.5,0.1l74.8-43.5C188.5,111.5,188.4,109.3,186,108"/>
									</g>
								</g>
							</g>
						</g>
					</g>
				</g>
			</g>
		</g>
	</g>
	<g class="st3">
		<g>
			<g class="st0">
				<g>
					<g>
						<defs>
							<polygon id="SVGID_3_" points="52.5,147.1 110.8,44.6 177.9,83.3 119.7,185.8 							"/>
						</defs>
						<clipPath id="SVGID_4_">
							<use xlink:href="#SVGID_3_"  style="overflow:visible;"/>
						</clipPath>
						<g class="st4">
							<g>
								<g>
									<g>
										<path class="st2" d="M87,164.9c-1.2-0.7-1.5-2.4-0.7-3.8c0.8-1.4,2.4-2,3.6-1.3s1.5,2.4,0.7,3.8S88.2,165.6,87,164.9
											 M65,143.4c-0.5-0.3-0.6-1-0.3-1.6l47.7-84c0.3-0.6,1-0.8,1.5-0.6L165.5,87c0.5,0.3,0.6,1,0.3,1.6l-47.7,84
											c-0.3,0.6-1,0.8-1.5,0.6L65,143.4 M173.6,80.9l-58.5-33.8c-2.4-1.4-5.6-0.2-7.2,2.6l-52.4,92.2c-1.6,2.8-1,6.2,1.4,7.6
											l58.5,33.8c2.4,1.4,5.6,0.2,7.2-2.6L175,88.5C176.6,85.6,176,82.2,173.6,80.9"/>
									</g>
								</g>
							</g>
						</g>
					</g>
				</g>
			</g>
		</g>
	</g>
</g>
<g>
	<g>
		<g>
			<path class="st5" d="M91.5,54.1c-18.6,7.2-33.1,22.6-39,41.8"/>
			<g>
				<polygon class="st6" points="87.9,48.8 100.1,51.4 91.7,60.7 				"/>
			</g>
			<g>
				<polygon class="st6" points="47,92.7 50.5,104.7 59.1,95.7 				"/>
			</g>
		</g>
	</g>
</g>
</svg>
