<?xml version="1.0" encoding="utf-8"?>
<!-- Generator: Adobe Illustrator 23.0.1, SVG Export Plug-In . SVG Version: 6.00 Build 0)  -->
<svg version="1.1" id="Layer_1" xmlns="http://www.w3.org/2000/svg" xmlns:xlink="http://www.w3.org/1999/xlink" x="0px" y="0px"
	 viewBox="0 0 153.6 153.6" style="enable-background:new 0 0 153.6 153.6;" xml:space="preserve">
<style type="text/css">
	.st0{fill:#FF5E4D;}
	.st1{opacity:0.5;}
</style>
<title>tempiconAsset 1</title>
<g>
	<g id="middle">
		<circle class="st0" cx="76.8" cy="76.8" r="76.8"/>
	</g>
	<g id="upper" class="st1">
		<path d="M76.8,106.1c-5.5,0-9.9-4.4-9.9-9.9c0-3.7,2.1-7.1,5.4-8.8V52c-0.2-2.5,1.7-4.6,4.2-4.8s4.6,1.7,4.8,4.2
			c0,0.2,0,0.4,0,0.6v35.3c4.9,2.5,6.8,8.5,4.3,13.3C83.9,104,80.5,106.1,76.8,106.1L76.8,106.1z M84.9,85.4V52
			c0-4.5-3.6-8.1-8.1-8.1s-8.1,3.6-8.1,8.1l0,0v33.4c-6,4.5-7.2,13-2.7,18.9c4.5,6,13,7.2,18.9,2.7c6-4.5,7.2-13,2.7-18.9
			C86.8,87,85.9,86.1,84.9,85.4z M79.4,89.3V68.4h-5.1v20.8c-3.8,1.4-5.8,5.7-4.4,9.5s5.7,5.8,9.5,4.4s5.8-5.7,4.4-9.5
			C83,91.6,81.4,90,79.4,89.3z"/>
	</g>
</g>
</svg>
