<?xml version="1.0" encoding="utf-8"?>
<!-- Generator: Adobe Illustrator 23.0.1, SVG Export Plug-In . SVG Version: 6.00 Build 0)  -->
<svg version="1.1" id="Layer_1" xmlns="http://www.w3.org/2000/svg" xmlns:xlink="http://www.w3.org/1999/xlink" x="0px" y="0px"
	 viewBox="0 0 230.4 230.4" style="enable-background:new 0 0 230.4 230.4;" xml:space="preserve">
<style type="text/css">
	.st0{fill:#FFDD0D;}
</style>
<g>
	<g>
		<g>
			<path class="st0" d="M115.2,19.9c-52.6,0-95.3,42.7-95.3,95.3c0,44.9,31,82.5,72.7,92.6l22.6,22.6l22.6-22.6
				c41.7-10.1,72.7-47.8,72.7-92.6C210.5,62.6,167.8,19.9,115.2,19.9z M135.3,203.2l-20.1,20.1l-20.1-20.1C55,194,25,158.1,25,115.2
				C25,65.4,65.4,25,115.2,25s90.2,40.5,90.2,90.2C205.4,158.1,175.4,194,135.3,203.2z"/>
		</g>
	</g>
</g>
</svg>
